<svg xmlns="http://www.w3.org/2000/svg" xmlns:xlink="http://www.w3.org/1999/xlink" width="890" height="857" viewBox="0 0 890 857">
  <defs>
    <clipPath id="clip-Web_1920_1">
      <rect width="890" height="857"/>
    </clipPath>
  </defs>
  <g id="Web_1920_1" data-name="Web 1920 – 1" clip-path="url(#clip-Web_1920_1)">
    <rect id="Rectangle_10" data-name="Rectangle 10" width="883" height="854" rx="427" transform="translate(-2 -5)" fill="rgba(76,164,164,0.28)"/>
    <g id="Rectangle_1" data-name="Rectangle 1" transform="translate(-2 -5)" fill="#a8e3d3" stroke="#fff" stroke-linecap="round" stroke-linejoin="round" stroke-width="30">
      <rect width="593" height="592" stroke="none"/>
      <rect x="15" y="15" width="563" height="562" fill="none"/>
    </g>
    <rect id="Rectangle_2" data-name="Rectangle 2" width="50" height="50" rx="5" transform="translate(92 74)" fill="#fff"/>
    <rect id="Rectangle_6" data-name="Rectangle 6" width="309" height="50" rx="5" transform="translate(195 74)" fill="#fff"/>
    <rect id="Rectangle_7" data-name="Rectangle 7" width="309" height="50" rx="5" transform="translate(195 197)" fill="#fff"/>
    <rect id="Rectangle_8" data-name="Rectangle 8" width="309" height="50" rx="5" transform="translate(195 324)" fill="#fff"/>
    <rect id="Rectangle_9" data-name="Rectangle 9" width="309" height="50" rx="5" transform="translate(195 451)" fill="#fff"/>
    <rect id="Rectangle_3" data-name="Rectangle 3" width="50" height="50" rx="5" transform="translate(92 197)" fill="#fff"/>
    <rect id="Rectangle_4" data-name="Rectangle 4" width="50" height="50" rx="5" transform="translate(92 324)" fill="#fff"/>
    <rect id="Rectangle_5" data-name="Rectangle 5" width="50" height="50" rx="5" transform="translate(92 451)" fill="#fff"/>
    <g id="Ellipse_1" data-name="Ellipse 1" transform="translate(334 278)" fill="#a8e3d3" stroke="#fff" stroke-width="30">
      <circle cx="204" cy="204" r="204" stroke="none"/>
      <circle cx="204" cy="204" r="189" fill="none"/>
    </g>
    <line id="Line_1" data-name="Line 1" x2="98" y2="31" transform="translate(440 531)" fill="none" stroke="#fff" stroke-linecap="round" stroke-width="12"/>
    <line id="Line_2" data-name="Line 2" x1="71" y2="188" transform="translate(538 374)" fill="none" stroke="#fff" stroke-linecap="round" stroke-width="12"/>
  </g>
</svg>
